<?xml version="1.0" encoding="UTF-8"?>
<svg width="434px" height="389px" viewBox="0 0 434 389" version="1.1" xmlns="http://www.w3.org/2000/svg" xmlns:xlink="http://www.w3.org/1999/xlink">
    <title>cdw_stiftung_k</title>
    <defs>
        <polygon id="path-1" points="0.06 0.308 34.217 0.308 34.217 39.858 0.06 39.858"></polygon>
        <polygon id="path-3" points="0.182811445 0.239174659 370.231 0.239174659 370.231 388.94 0.182811445 388.94"></polygon>
    </defs>
    <g id="Page-1" stroke="none" stroke-width="1" fill="none" fill-rule="evenodd">
        <g id="cdw_stiftung_k">
            <g id="Group-3" transform="translate(0.000000, 331.000000)">
                <mask id="mask-2" fill="white">
                    <use xlink:href="#path-1"></use>
                </mask>
                <g id="Clip-2"></g>
                <path d="M28.805,11.209 C27.48,9.829 26.086,8.783 24.627,8.067 C23.168,7.351 21.431,6.99 19.414,6.99 C17.452,6.99 15.742,7.351 14.283,8.067 C12.824,8.783 11.603,9.764 10.622,11.01 C9.642,12.259 8.899,13.69 8.393,15.308 C7.89,16.928 7.639,18.61 7.639,20.362 C7.639,22.11 7.928,23.768 8.513,25.334 C9.098,26.9 9.917,28.267 10.98,29.433 C12.04,30.6 13.313,31.515 14.8,32.179 C16.286,32.843 17.955,33.173 19.814,33.173 C21.829,33.173 23.554,32.815 24.985,32.1 C26.42,31.384 27.744,30.334 28.966,28.954 L34.059,34.047 C32.2,36.118 30.04,37.601 27.572,38.503 C25.106,39.404 22.49,39.858 19.734,39.858 C16.816,39.858 14.15,39.381 11.738,38.424 C9.322,37.471 7.239,36.132 5.489,34.405 C3.74,32.684 2.385,30.613 1.432,28.201 C0.475,25.785 0,23.118 0,20.2 C0,17.286 0.475,14.605 1.432,12.166 C2.385,9.726 3.727,7.627 5.45,5.879 C7.174,4.128 9.242,2.762 11.658,1.781 C14.07,0.8 16.761,0.308 19.734,0.308 C22.49,0.308 25.133,0.8 27.652,1.781 C30.17,2.762 32.359,4.262 34.217,6.274 L28.805,11.209" id="Fill-1" fill="#1A1919" mask="url(#mask-2)"></path>
            </g>
            <path d="M58.407,364.173 C60.318,364.173 62.041,363.843 63.582,363.179 C65.12,362.515 66.418,361.613 67.482,360.474 C68.541,359.331 69.363,357.952 69.949,356.334 C70.529,354.717 70.822,352.952 70.822,351.042 C70.822,349.133 70.529,347.371 69.949,345.75 C69.363,344.133 68.541,342.753 67.482,341.614 C66.418,340.472 65.12,339.57 63.582,338.906 C62.041,338.245 60.318,337.911 58.407,337.911 C56.497,337.911 54.774,338.245 53.236,338.906 C51.697,339.57 50.397,340.472 49.337,341.614 C48.274,342.753 47.454,344.133 46.869,345.75 C46.284,347.371 45.995,349.133 45.995,351.042 C45.995,352.952 46.284,354.717 46.869,356.334 C47.454,357.952 48.274,359.331 49.337,360.474 C50.397,361.613 51.697,362.515 53.236,363.179 C54.774,363.843 56.497,364.173 58.407,364.173 Z M77.984,369.902 L70.822,369.902 L70.822,364.489 L70.664,364.489 C69.284,366.51 67.388,368.071 64.973,369.186 C62.561,370.302 60.079,370.858 57.533,370.858 C54.615,370.858 51.976,370.353 49.615,369.345 C47.255,368.337 45.239,366.933 43.567,365.126 C41.898,363.323 40.611,361.227 39.709,358.84 C38.804,356.455 38.357,353.853 38.357,351.042 C38.357,348.23 38.804,345.619 39.709,343.203 C40.611,340.791 41.898,338.696 43.567,336.917 C45.239,335.142 47.255,333.748 49.615,332.739 C51.976,331.731 54.615,331.228 57.533,331.228 C60.237,331.228 62.784,331.8 65.172,332.939 C67.561,334.081 69.391,335.634 70.664,337.595 L70.822,337.595 L70.822,309.743 L77.984,309.743 L77.984,369.902 L77.984,369.902 Z" id="Fill-4" fill="#1A1919"></path>
            <polyline id="Fill-5" fill="#1A1919" points="84.267 332.182 92.305 332.182 100.777 360.353 100.938 360.353 109.971 332.182 117.61 332.182 127.158 360.353 127.321 360.353 135.355 332.182 142.993 332.182 130.82 369.902 123.579 369.902 113.591 341.73 113.429 341.73 104.321 369.902 96.682 369.902 84.267 332.182"></polyline>
            <path d="M191.377,341.651 C190.531,340.592 189.482,339.704 188.236,338.988 C186.987,338.269 185.462,337.911 183.659,337.911 C181.963,337.911 180.49,338.269 179.244,338.988 C177.995,339.704 177.373,340.75 177.373,342.13 C177.373,343.245 177.731,344.146 178.447,344.835 C179.162,345.526 180.012,346.084 180.992,346.507 C181.974,346.934 183.023,347.25 184.138,347.46 C185.253,347.674 186.206,347.859 187,348.018 C188.539,348.39 189.988,348.844 191.34,349.37 C192.692,349.903 193.859,350.592 194.839,351.441 C195.82,352.291 196.591,353.323 197.149,354.545 C197.705,355.767 197.985,357.25 197.985,359.001 C197.985,361.124 197.533,362.937 196.632,364.452 C195.727,365.962 194.561,367.197 193.129,368.15 C191.697,369.107 190.067,369.796 188.236,370.223 C186.406,370.645 184.561,370.858 182.706,370.858 C179.575,370.858 176.829,370.381 174.469,369.424 C172.108,368.471 169.999,366.72 168.144,364.173 L173.553,359.717 C174.72,360.884 176.021,361.919 177.452,362.82 C178.887,363.723 180.635,364.173 182.706,364.173 C183.608,364.173 184.524,364.08 185.448,363.894 C186.378,363.708 187.2,363.416 187.916,363.02 C188.632,362.621 189.217,362.119 189.667,361.506 C190.118,360.897 190.345,360.195 190.345,359.396 C190.345,358.337 190.012,357.463 189.351,356.771 C188.687,356.083 187.889,355.54 186.963,355.141 C186.033,354.741 185.053,354.425 184.018,354.187 C182.985,353.946 182.07,353.747 181.272,353.589 C179.734,353.217 178.275,352.794 176.895,352.315 C175.515,351.837 174.296,351.2 173.237,350.405 C172.173,349.61 171.327,348.602 170.691,347.381 C170.054,346.163 169.734,344.648 169.734,342.846 C169.734,340.885 170.143,339.174 170.969,337.715 C171.788,336.256 172.879,335.049 174.232,334.092 C175.583,333.139 177.121,332.423 178.846,331.944 C180.57,331.467 182.307,331.228 184.059,331.228 C186.605,331.228 189.045,331.704 191.377,332.66 C193.714,333.617 195.569,335.207 196.948,337.436 L191.377,341.651" id="Fill-6" fill="#1A1919"></path>
            <path d="M226.871,338.39 L216.604,338.39 L216.604,355.498 C216.604,356.561 216.631,357.607 216.683,358.643 C216.738,359.676 216.934,360.604 217.281,361.427 C217.625,362.249 218.156,362.914 218.871,363.416 C219.59,363.922 220.636,364.173 222.016,364.173 C222.863,364.173 223.74,364.094 224.642,363.935 C225.543,363.773 226.365,363.484 227.109,363.059 L227.109,369.582 C226.259,370.06 225.157,370.391 223.806,370.58 C222.453,370.763 221.404,370.858 220.664,370.858 C217.905,370.858 215.771,370.47 214.257,369.703 C212.746,368.935 211.631,367.94 210.915,366.72 C210.199,365.498 209.774,364.132 209.643,362.621 C209.508,361.11 209.443,359.586 209.443,358.045 L209.443,338.39 L201.167,338.39 L201.167,332.182 L209.443,332.182 L209.443,321.598 L216.604,321.598 L216.604,332.182 L226.871,332.182 L226.871,338.39" id="Fill-7" fill="#1A1919"></path>
            <path d="M233.758,369.902 L240.922,369.902 L240.922,332.182 L233.758,332.182 L233.758,369.902 Z M232.089,318.655 C232.089,317.224 232.605,315.989 233.641,314.953 C234.673,313.921 235.908,313.401 237.34,313.401 C238.771,313.401 240.006,313.921 241.039,314.953 C242.074,315.989 242.591,317.224 242.591,318.655 C242.591,320.087 242.074,321.322 241.039,322.354 C240.006,323.391 238.771,323.906 237.34,323.906 C235.908,323.906 234.673,323.391 233.641,322.354 C232.605,321.322 232.089,320.087 232.089,318.655 L232.089,318.655 Z" id="Fill-8" fill="#1A1919"></path>
            <path d="M254.885,338.39 L246.768,338.39 L246.768,332.182 L254.885,332.182 L254.885,323.748 C254.885,318.707 255.852,314.953 257.789,312.489 C259.727,310.022 263.054,308.787 267.776,308.787 C268.573,308.787 269.406,308.814 270.283,308.866 C271.157,308.921 272.101,309.079 273.109,309.345 L272.314,315.71 C271.622,315.445 270.958,315.26 270.322,315.152 C269.685,315.05 268.996,314.994 268.253,314.994 C266.929,314.994 265.865,315.194 265.071,315.59 C264.276,315.989 263.65,316.559 263.202,317.304 C262.748,318.047 262.459,318.934 262.324,319.967 C262.194,321.002 262.125,322.183 262.125,323.511 L262.125,332.182 L270.642,332.182 L270.642,338.39 L262.046,338.39 L262.046,369.902 L254.885,369.902 L254.885,338.39" id="Fill-9" fill="#1A1919"></path>
            <path d="M300.71,338.39 L290.443,338.39 L290.443,355.498 C290.443,356.561 290.47,357.607 290.522,358.643 C290.577,359.676 290.773,360.604 291.12,361.427 C291.465,362.249 291.994,362.914 292.71,363.416 C293.43,363.922 294.476,364.173 295.856,364.173 C296.701,364.173 297.579,364.094 298.481,363.935 C299.382,363.773 300.204,363.484 300.948,363.059 L300.948,369.582 C300.098,370.06 298.997,370.391 297.645,370.58 C296.292,370.763 295.242,370.858 294.503,370.858 C291.743,370.858 289.61,370.47 288.096,369.703 C286.585,368.935 285.471,367.94 284.755,366.72 C284.039,365.498 283.613,364.132 283.482,362.621 C283.347,361.11 283.282,359.586 283.282,358.045 L283.282,338.39 L275.006,338.39 L275.006,332.182 L283.282,332.182 L283.282,321.598 L290.443,321.598 L290.443,332.182 L300.71,332.182 L300.71,338.39" id="Fill-10" fill="#1A1919"></path>
            <path d="M342.363,369.902 L335.198,369.902 L335.198,364.094 L335.04,364.094 C334.139,366.11 332.573,367.741 330.344,368.987 C328.117,370.232 325.543,370.858 322.625,370.858 C320.767,370.858 319.019,370.58 317.374,370.022 C315.73,369.465 314.284,368.601 313.038,367.435 C311.789,366.268 310.795,364.768 310.052,362.937 C309.309,361.11 308.941,358.949 308.941,356.455 L308.941,332.182 L316.101,332.182 L316.101,354.466 C316.101,356.214 316.339,357.714 316.817,358.96 C317.295,360.209 317.932,361.217 318.727,361.984 C319.522,362.755 320.437,363.312 321.473,363.657 C322.508,364.001 323.582,364.173 324.697,364.173 C326.18,364.173 327.56,363.935 328.833,363.457 C330.106,362.978 331.221,362.222 332.174,361.189 C333.131,360.154 333.874,358.84 334.404,357.25 C334.934,355.656 335.198,353.774 335.198,351.6 L335.198,332.182 L342.363,332.182 L342.363,369.902" id="Fill-11" fill="#1A1919"></path>
            <g id="Group-17" transform="translate(63.000000, 0.000000)">
                <mask id="mask-4" fill="white">
                    <use xlink:href="#path-3"></use>
                </mask>
                <g id="Clip-13"></g>
                <path d="M289.186,332.182 L296.347,332.182 L296.347,337.99 L296.505,337.99 C297.406,335.977 298.972,334.347 301.202,333.098 C303.428,331.851 306.002,331.228 308.92,331.228 C310.723,331.228 312.461,331.508 314.133,332.065 C315.802,332.619 317.261,333.482 318.51,334.649 C319.756,335.815 320.75,337.316 321.493,339.146 C322.234,340.977 322.609,343.139 322.609,345.633 L322.609,369.902 L315.445,369.902 L315.445,347.622 C315.445,345.87 315.207,344.374 314.729,343.124 C314.25,341.879 313.614,340.871 312.819,340.1 C312.024,339.332 311.109,338.775 310.073,338.431 C309.04,338.087 307.963,337.911 306.852,337.911 C305.365,337.911 303.986,338.152 302.712,338.627 C301.44,339.105 300.324,339.862 299.371,340.898 C298.414,341.931 297.671,343.245 297.142,344.835 C296.612,346.428 296.347,348.309 296.347,350.484 L296.347,369.902 L289.186,369.902 L289.186,332.182" id="Fill-12" fill="#1A1919" mask="url(#mask-4)"></path>
                <path d="M350.655,337.911 C348.745,337.911 347.022,338.245 345.484,338.906 C343.946,339.57 342.645,340.472 341.584,341.614 C340.522,342.753 339.702,344.133 339.117,345.75 C338.532,347.371 338.243,349.133 338.243,351.042 C338.243,354.861 339.359,357.928 341.584,360.233 C343.815,362.542 346.835,363.694 350.655,363.694 C354.475,363.694 357.499,362.542 359.729,360.233 C361.955,357.928 363.071,354.861 363.071,351.042 C363.071,349.133 362.778,347.371 362.197,345.75 C361.612,344.133 360.788,342.753 359.729,341.614 C358.665,340.472 357.368,339.57 355.83,338.906 C354.288,338.245 352.565,337.911 350.655,337.911 Z M370.231,369.582 C370.231,372.448 369.742,375.06 368.762,377.421 C367.778,379.781 366.384,381.825 364.58,383.549 C362.778,385.273 360.603,386.611 358.057,387.568 C355.51,388.521 352.698,389 349.622,389 C346.013,389 342.71,388.497 339.716,387.489 C336.715,386.481 333.866,384.729 331.161,382.238 L336.014,376.188 C337.871,378.205 339.885,379.729 342.063,380.766 C344.238,381.798 346.704,382.317 349.464,382.317 C352.114,382.317 354.317,381.932 356.068,381.161 C357.82,380.393 359.209,379.399 360.245,378.178 C361.281,376.956 362.01,375.566 362.434,374.001 C362.857,372.434 363.071,370.858 363.071,369.266 L363.071,363.694 L362.832,363.694 C361.452,365.976 359.581,367.662 357.22,368.75 C354.86,369.837 352.379,370.381 349.781,370.381 C347.022,370.381 344.461,369.889 342.101,368.908 C339.74,367.927 337.71,366.575 336.014,364.848 C334.318,363.127 332.989,361.083 332.035,358.723 C331.079,356.362 330.605,353.802 330.605,351.042 C330.605,348.286 331.052,345.698 331.956,343.283 C332.859,340.871 334.145,338.762 335.814,336.958 C337.487,335.155 339.503,333.748 341.864,332.739 C344.224,331.731 346.864,331.228 349.781,331.228 C352.327,331.228 354.808,331.786 357.22,332.897 C359.636,334.013 361.532,335.578 362.911,337.595 L363.071,337.595 L363.071,332.182 L370.231,332.182 L370.231,369.582 L370.231,369.582 Z" id="Fill-14" fill="#1A1919" mask="url(#mask-4)"></path>
                <path d="M96.305,63.671 C47.092,72.551 6.017,107.847 0.727,158.741 C-5.675,220.378 45.323,272.474 105.548,268.209 C114.038,267.605 125.932,243.618 118.898,244.111 C84.497,246.545 51.251,233.307 32.545,203.189 C3.358,156.221 27.56,97.751 82.954,87.765 C91.426,86.236 102.408,62.574 96.305,63.671" id="Fill-15" fill="#1A1919" mask="url(#mask-4)"></path>
                <path d="M101.398,0.246 C92.907,-0.209 78.235,22.235 85.322,22.614 C119.76,24.468 151.1,41.758 165.91,73.968 C181.88,108.691 173.684,143.784 144.914,169.142 C139.045,146.305 133.664,130.124 134.961,99.11 C135.535,85.31 112.776,101.054 112.377,110.638 C113.714,137.752 120.558,167.388 125.685,183.22 C116.029,188.952 105.644,193.343 93.434,196.853 C82.155,200.098 79.064,204.798 85.322,204.463 C135.285,201.769 180.353,171.696 191.887,121.876 C205.869,61.495 161.679,3.495 101.398,0.246" id="Fill-16" fill="#1A1919" mask="url(#mask-4)"></path>
            </g>
            <path d="M384.364,142.209 C382.622,147.933 379.287,159.278 377.397,164.104 C367.123,190.457 362.457,205.767 347.539,205.158 C335.348,204.66 307.593,179.245 290.488,169.727 C286.258,167.488 283.06,168.45 280.534,169.292 C280.534,169.292 274.191,171.594 271.702,175.948 C269.09,181.049 267.285,187.953 263.99,203.192 C259.635,223.532 258.515,230.642 246.87,230.642 C237.095,230.642 220.671,206.582 214.244,191.661 C214.041,191.188 213.524,190.987 213.057,191.206 C206.34,195.081 202.483,198.191 196.285,201.156 C195.889,201.395 195.748,201.883 195.913,202.315 C207.263,232.019 224.799,251.359 244.315,251.359 C276.058,251.359 274.451,197.674 282.476,193.713 C283.894,192.867 285.611,192.718 287.403,193.465 C302.704,200.68 325.396,221.58 344.803,225.311 C356.137,227.491 366.325,223.943 375.904,208.268 C381.004,199.559 386.487,187.472 390.832,177.167 C396.058,165.224 398.919,156.765 399.79,152.908 C401.282,145.568 386.851,132.754 384.364,142.209" id="Fill-18" fill="#1A1919"></path>
        </g>
    </g>
</svg>