<?xml version="1.0" encoding="UTF-8"?>
<svg width="542px" height="809px" viewBox="0 0 542 809" version="1.1" xmlns="http://www.w3.org/2000/svg" xmlns:xlink="http://www.w3.org/1999/xlink">
    <title>examen-schriftzug</title>
    <g id="examen-schriftzug" stroke="none" stroke-width="1" fill="none" fill-rule="evenodd">
        <path d="M282.564,19.726 C282.564,9.442 274.21,1.104 263.907,1.104 C253.603,1.104 245.25,9.442 245.25,19.726 C245.25,19.854 245.258,19.979 245.26,20.106 C245.258,20.171 245.25,20.236 245.25,20.302 L245.25,802.994 C245.25,804.411 245.25,808.815 245.25,808.815 C245.25,808.815 249.1,808.815 250.798,808.815 L277.015,808.815 C278.728,808.815 282.564,808.815 282.564,808.815 C282.564,808.815 282.564,804.396 282.564,802.994 L282.564,20.302 C282.564,20.236 282.556,20.171 282.554,20.106 C282.556,19.979 282.564,19.854 282.564,19.726" id="Fill-1" fill="#2C2E3A"></path>
        <path d="M540.863,19.726 C540.863,9.442 532.51,1.104 522.206,1.104 C511.903,1.104 503.55,9.442 503.55,19.726 C503.55,19.854 503.557,19.979 503.56,20.106 C503.558,20.171 503.55,20.236 503.55,20.302 L503.55,802.858 C503.55,804.203 503.55,808.815 503.55,808.815 C503.55,808.815 507.331,808.815 509.098,808.815 L535.315,808.815 C536.73,808.815 540.863,808.815 540.863,808.815 C540.863,808.815 540.863,804.569 540.863,802.858 L540.863,20.302 C540.863,20.236 540.856,20.171 540.854,20.106 C540.856,19.979 540.863,19.854 540.863,19.726" id="Fill-2" fill="#2C2E3A"></path>
        <path d="M411.461,499.435 C411.461,467.347 419.803,439.429 431.675,425.31 L431.675,412.475 C431.675,387.125 420.124,364.662 402.157,349.902 L402.157,552.02 L307.503,635.13 L304.616,635.13 L304.616,552.02 L269.642,552.02 L269.642,412.475 C269.642,368.192 305.9,330.327 350.498,330.97 C370.071,331.29 388.039,338.349 402.157,349.902 L402.157,339.954 C413.707,333.536 438.413,328.081 458.948,330.327 C485.9,333.216 504.189,341.558 517.986,355.678 L517.986,552.02 L419.994,552.02 C414.62,537.631 411.461,519.167 411.461,499.435 Z M265.471,679.734 L262.252,679.734 L262.252,717.919 C262.252,764.769 222.466,804.559 176.263,804.559 L71.663,804.559 C69.739,797.178 68.455,789.157 68.455,781.134 C68.455,744.553 92.198,713.106 123.963,698.024 L265.471,630.769 L265.471,679.734 Z M55.621,582.504 C55.621,581.542 55.621,580.9 56.262,580.258 C78.402,563.893 104.391,556.192 140.648,556.192 L232.092,556.192 C239.792,566.139 248.135,578.654 254.873,589.885 C259.365,597.265 261.611,602.4 261.611,609.78 C261.611,620.37 254.231,631.28 243.964,636.413 L55.621,725.941 L55.621,582.504 Z M245.247,404.774 L245.247,481.786 C258.081,485.637 262.252,494.301 262.252,517.084 L262.252,552.02 L96.373,552.02 C96.512,463.338 147.84,404.774 245.247,404.774 Z M71.663,291.958 C69.739,284.577 68.455,276.555 68.455,268.533 C68.455,231.952 92.198,200.505 123.963,185.423 L266.424,117.716 L266.424,86.599 C321.768,86.983 390.258,120.867 441.622,166.811 C408.574,207.885 362.37,241.899 311.675,259.869 L266.424,259.869 L266.424,167.132 L262.252,167.132 L262.252,205.318 C262.252,252.168 222.466,291.958 176.263,291.958 L71.663,291.958 Z M55.621,69.904 C55.621,68.941 55.621,68.299 56.262,67.657 C78.402,51.292 104.391,43.591 140.648,43.591 L232.092,43.591 C239.792,53.538 248.135,66.053 254.873,77.284 C259.365,84.664 261.611,89.798 261.611,97.179 C261.611,107.768 254.231,118.679 243.964,123.813 L55.621,213.34 L55.621,69.904 Z M517.986,662.084 C517.986,733.642 476.595,776.641 415.632,804.559 L415.632,808.749 L522.158,808.749 L522.158,306.903 L402.157,331.29 L402.157,295.672 L330.285,295.672 L330.285,307.223 C330.285,328.402 308.466,343.163 281.835,343.163 L266.424,343.163 L202.553,296.129 L303.332,296.129 L449.001,173.55 C488.787,211.415 516.382,256.018 515.74,296.129 L522.158,296.129 L522.158,211.415 L457.344,166.811 L522.158,112.261 L522.158,39.419 L491.996,39.419 C491.996,80.172 474.991,122.529 447.077,159.752 L272.209,39.419 L55.299,39.419 L55.299,66.374 C55.299,67.336 55.299,68.62 53.374,70.545 C25.139,98.783 9.738,145.954 9.738,197.938 C9.738,234.84 18.722,268.854 33.803,296.129 L72.924,296.129 L9.738,339.633 L91.235,339.633 C102.145,314.604 131.984,299.843 165.995,299.843 C200.648,299.843 232.412,315.246 243.643,339.633 L9.738,552.382 L55.299,552.382 L55.299,578.975 C55.299,579.937 55.299,581.221 53.374,583.146 C25.139,611.384 9.738,658.555 9.738,710.538 C9.738,747.441 18.722,781.454 33.803,808.731 L37.361,808.629 L269.642,808.629 L269.642,703.159 C269.642,656.309 280.552,649.571 302.37,649.571 C341.194,601.758 389.001,574.803 437.13,574.803 C493.921,574.803 517.986,610.743 517.986,662.084 L517.986,662.084 Z" id="Fill-3" fill="#FFDA1A"></path>
        <path d="M411.461,499.435 C411.461,467.347 419.803,439.429 431.675,425.31 L431.675,412.475 C431.675,387.125 420.124,364.662 402.157,349.902 L402.157,552.02 L307.503,635.13 L304.616,635.13 L304.616,552.02 L269.642,552.02 L269.642,412.475 C269.642,368.192 305.9,330.327 350.498,330.97 C370.071,331.29 388.039,338.349 402.157,349.902 L402.157,339.954 C413.707,333.536 438.413,328.081 458.948,330.327 C485.9,333.216 504.189,341.558 517.986,355.678 L517.986,552.02 L419.994,552.02 C414.62,537.631 411.461,519.167 411.461,499.435 Z M265.471,679.734 L262.252,679.734 L262.252,717.919 C262.252,764.769 222.466,804.559 176.263,804.559 L71.663,804.559 C69.739,797.178 68.455,789.157 68.455,781.134 C68.455,744.553 92.198,713.106 123.963,698.024 L265.471,630.769 L265.471,679.734 Z M55.621,582.504 C55.621,581.542 55.621,580.9 56.262,580.258 C78.402,563.893 104.391,556.192 140.648,556.192 L232.092,556.192 C239.792,566.139 248.135,578.654 254.873,589.885 C259.365,597.265 261.611,602.4 261.611,609.78 C261.611,620.37 254.231,631.28 243.964,636.413 L55.621,725.941 L55.621,582.504 Z M245.247,404.774 L245.247,481.786 C258.081,485.637 262.252,494.301 262.252,517.084 L262.252,552.02 L96.373,552.02 C96.512,463.338 147.84,404.774 245.247,404.774 Z M71.663,291.958 C69.739,284.577 68.455,276.555 68.455,268.533 C68.455,231.952 92.198,200.505 123.963,185.423 L266.424,117.716 L266.424,86.599 C321.768,86.983 390.258,120.867 441.622,166.811 C408.574,207.885 362.37,241.899 311.675,259.869 L266.424,259.869 L266.424,167.132 L262.252,167.132 L262.252,205.318 C262.252,252.168 222.466,291.958 176.263,291.958 L71.663,291.958 Z M55.621,69.904 C55.621,68.941 55.621,68.299 56.262,67.657 C78.402,51.292 104.391,43.591 140.648,43.591 L232.092,43.591 C239.792,53.538 248.135,66.053 254.873,77.284 C259.365,84.664 261.611,89.798 261.611,97.179 C261.611,107.768 254.231,118.679 243.964,123.813 L55.621,213.34 L55.621,69.904 Z M517.986,662.084 C517.986,733.642 476.595,776.641 415.632,804.559 L415.632,808.749 L522.158,808.749 L522.158,306.903 L402.157,331.29 L402.157,295.672 L330.285,295.672 L330.285,307.223 C330.285,328.402 308.466,343.163 281.835,343.163 L266.424,343.163 L202.553,296.129 L303.332,296.129 L449.001,173.55 C488.787,211.415 516.382,256.018 515.74,296.129 L522.158,296.129 L522.158,211.415 L457.344,166.811 L522.158,112.261 L522.158,39.419 L491.996,39.419 C491.996,80.172 474.991,122.529 447.077,159.752 L272.209,39.419 L55.299,39.419 L55.299,66.374 C55.299,67.336 55.299,68.62 53.374,70.545 C25.139,98.783 9.738,145.954 9.738,197.938 C9.738,234.84 18.722,268.854 33.803,296.129 L72.924,296.129 L9.738,339.633 L91.235,339.633 C102.145,314.604 131.984,299.843 165.995,299.843 C200.648,299.843 232.412,315.246 243.643,339.633 L9.738,552.382 L55.299,552.382 L55.299,578.975 C55.299,579.937 55.299,581.221 53.374,583.146 C25.139,611.384 9.738,658.555 9.738,710.538 C9.738,747.441 18.722,781.454 33.803,808.731 L37.361,808.629 L269.642,808.629 L269.642,703.159 C269.642,656.309 280.552,649.571 302.37,649.571 C341.194,601.758 389.001,574.803 437.13,574.803 C493.921,574.803 517.986,610.743 517.986,662.084 Z" id="Stroke-4" stroke="#1A1919" stroke-width="0.5"></path>
        <path d="M264.273,70.31 C269.161,70.31 273.125,66.497 273.125,61.793 C273.125,57.091 269.161,53.278 264.273,53.278 C259.383,53.278 255.42,57.091 255.42,61.793 C255.42,66.497 259.383,70.31 264.273,70.31" id="Fill-6" fill="#FFFFFE"></path>
        <path d="M264.273,70.31 C269.161,70.31 273.125,66.497 273.125,61.793 C273.125,57.091 269.161,53.278 264.273,53.278 C259.383,53.278 255.42,57.091 255.42,61.793 C255.42,66.497 259.383,70.31 264.273,70.31 Z" id="Stroke-7" stroke="#6F8F9D" stroke-width="0.5" stroke-linejoin="round"></path>
        <path d="M264.273,371.657 C269.161,371.657 273.125,367.844 273.125,363.139 C273.125,358.437 269.161,354.624 264.273,354.624 C259.383,354.624 255.42,358.437 255.42,363.139 C255.42,367.844 259.383,371.657 264.273,371.657" id="Fill-8" fill="#FFFFFE"></path>
        <path d="M264.273,371.657 C269.161,371.657 273.125,367.844 273.125,363.139 C273.125,358.437 269.161,354.624 264.273,354.624 C259.383,354.624 255.42,358.437 255.42,363.139 C255.42,367.844 259.383,371.657 264.273,371.657 Z" id="Stroke-9" stroke="#6F8F9D" stroke-width="0.5" stroke-linejoin="round"></path>
        <path d="M265.937,580.254 C270.827,580.254 274.789,576.442 274.789,571.738 C274.789,567.036 270.827,563.222 265.937,563.222 C261.048,563.222 257.084,567.036 257.084,571.738 C257.084,576.442 261.048,580.254 265.937,580.254" id="Fill-10" fill="#FFFFFE"></path>
        <path d="M265.937,580.254 C270.827,580.254 274.789,576.442 274.789,571.738 C274.789,567.036 270.827,563.222 265.937,563.222 C261.048,563.222 257.084,567.036 257.084,571.738 C257.084,576.442 261.048,580.254 265.937,580.254 Z" id="Stroke-11" stroke="#6F8F9D" stroke-width="0.5" stroke-linejoin="round"></path>
        <path d="M521.563,95.976 C526.453,95.976 530.416,92.163 530.416,87.459 C530.416,82.757 526.453,78.944 521.563,78.944 C516.674,78.944 512.71,82.757 512.71,87.459 C512.71,92.163 516.674,95.976 521.563,95.976" id="Fill-12" fill="#FFFFFE"></path>
        <path d="M521.563,95.976 C526.453,95.976 530.416,92.163 530.416,87.459 C530.416,82.757 526.453,78.944 521.563,78.944 C516.674,78.944 512.71,82.757 512.71,87.459 C512.71,92.163 516.674,95.976 521.563,95.976 Z" id="Stroke-13" stroke="#6F8F9D" stroke-width="0.5" stroke-linejoin="round"></path>
        <path d="M521.84,336.15 C526.73,336.15 530.694,332.337 530.694,327.633 C530.694,322.931 526.73,319.118 521.84,319.118 C516.952,319.118 512.988,322.931 512.988,327.633 C512.988,332.337 516.952,336.15 521.84,336.15" id="Fill-14" fill="#FFFFFE"></path>
        <path d="M521.84,336.15 C526.73,336.15 530.694,332.337 530.694,327.633 C530.694,322.931 526.73,319.118 521.84,319.118 C516.952,319.118 512.988,322.931 512.988,327.633 C512.988,332.337 516.952,336.15 521.84,336.15 Z" id="Stroke-15" stroke="#6F8F9D" stroke-width="0.5" stroke-linejoin="round"></path>
        <path d="M522.118,594.649 C527.007,594.649 530.971,590.836 530.971,586.132 C530.971,581.43 527.007,577.617 522.118,577.617 C517.229,577.617 513.265,581.43 513.265,586.132 C513.265,590.836 517.229,594.649 522.118,594.649" id="Fill-16" fill="#FFFFFE"></path>
        <path d="M522.118,594.649 C527.007,594.649 530.971,590.836 530.971,586.132 C530.971,581.43 527.007,577.617 522.118,577.617 C517.229,577.617 513.265,581.43 513.265,586.132 C513.265,590.836 517.229,594.649 522.118,594.649 Z" id="Stroke-17" stroke="#6F8F9D" stroke-width="0.5" stroke-linejoin="round"></path>
    </g>
</svg>