<?xml version="1.0" encoding="UTF-8"?>
<svg width="1004px" height="180px" viewBox="0 0 1004 180" version="1.1" xmlns="http://www.w3.org/2000/svg" xmlns:xlink="http://www.w3.org/1999/xlink">
    <title>KHK_LOGO_CMYK_rechts_links</title>
    <defs>
        <polygon id="path-1" points="0.06 0.782 53.7065646 0.782 53.7065646 72.482 0.06 72.482"></polygon>
        <polygon id="path-3" points="0.1 0.782 525.23 0.782 525.23 72.4833664 0.1 72.4833664"></polygon>
        <polygon id="path-5" points="0.06 0.782 940.405 0.782 940.405 179.94 0.06 179.94"></polygon>
    </defs>
    <g id="Page-1" stroke="none" stroke-width="1" fill="none" fill-rule="evenodd">
        <g id="KHK_LOGO_CMYK_rechts_links">
            <g id="Group-3">
                <mask id="mask-2" fill="white">
                    <use xlink:href="#path-1"></use>
                </mask>
                <g id="Clip-2"></g>
                <path d="M1.501,0.782 L10.628,0.782 C11.622,0.782 12.123,1.282 12.123,2.285 L12.123,28.181 L36.571,1.884 C37.25,1.155 38.094,0.782 39.092,0.782 L52.462,0.782 C53.435,0.782 53.609,1.163 52.962,1.9 L28.911,28.863 L53.455,71.184 C53.954,72.048 53.714,72.482 52.705,72.482 L41.556,72.482 C40.56,72.482 39.8,72.045 39.3,71.191 L19.842,38.043 L12.173,45.747 L12.173,70.982 C12.173,71.976 11.675,72.482 10.672,72.482 L1.496,72.482 C0.502,72.482 0,71.978 0,70.982 L0,2.279 C0,1.279 0.507,0.782 1.501,0.782" id="Fill-1" fill="#1A1919" mask="url(#mask-2)"></path>
            </g>
            <path d="M119.087,2.282 L119.087,2.25 C119.078,1.285 118.577,0.782 117.59,0.782 L108.185,0.782 C107.216,0.782 106.714,1.249 106.688,2.203 L106.688,2.282 L106.685,2.282 L106.685,48.499 C106.685,49.073 106.557,51.301 106.43,51.833 C106.041,53.463 105.461,55.102 104.428,56.471 C103.762,57.353 102.997,58.088 102.165,58.615 C100.583,59.617 98.926,60.016 97.122,60.079 C96.669,60.111 94.778,60.109 94.27,60.109 L93.761,60.109 C93.253,60.109 91.362,60.111 90.91,60.079 C89.105,60.016 87.449,59.617 85.867,58.615 C85.035,58.088 84.27,57.353 83.603,56.471 C82.57,55.102 81.991,53.463 81.602,51.833 C81.475,51.301 81.346,49.073 81.346,48.499 L81.346,2.282 L81.344,2.282 L81.344,2.203 C81.317,1.249 80.815,0.782 79.847,0.782 L70.441,0.782 C69.455,0.782 68.954,1.285 68.944,2.25 L68.944,2.282 L68.943,2.282 L68.943,49 C68.943,49.375 68.961,50.946 68.996,51.332 C69.238,56.932 71.359,62.306 75.358,66.239 C79.635,70.439 84.828,72.482 90.836,72.482 L97.195,72.482 C103.203,72.482 108.397,70.439 112.673,66.239 C116.673,62.306 118.794,56.932 119.035,51.332 C119.07,50.946 119.088,49.375 119.088,49 L119.088,2.282 L119.087,2.282" id="Fill-4" fill="#1A1919"></path>
            <path d="M872.388,2.282 L872.388,2.25 C872.378,1.285 871.877,0.782 870.891,0.782 L861.486,0.782 C860.517,0.782 860.015,1.249 859.989,2.203 L859.989,2.282 L859.986,2.282 L859.986,48.499 C859.986,49.073 859.859,51.301 859.731,51.833 C859.342,53.463 858.762,55.102 857.729,56.471 C857.063,57.353 856.298,58.088 855.466,58.615 C853.884,59.617 852.227,60.016 850.423,60.079 C849.971,60.111 848.08,60.109 847.572,60.109 L847.062,60.109 C846.554,60.109 844.664,60.111 844.211,60.079 C842.407,60.016 840.75,59.617 839.168,58.615 C838.336,58.088 837.572,57.353 836.906,56.471 C835.873,55.102 835.292,53.463 834.904,51.833 C834.777,51.301 834.648,49.073 834.648,48.499 L834.648,2.282 L834.646,2.282 L834.646,2.203 C834.619,1.249 834.117,0.782 833.148,0.782 L823.744,0.782 C822.757,0.782 822.255,1.285 822.247,2.25 L822.247,2.282 L822.246,2.282 L822.246,49 C822.246,49.375 822.263,50.946 822.298,51.332 C822.54,56.932 824.661,62.306 828.661,66.239 C832.937,70.439 838.13,72.482 844.138,72.482 L850.497,72.482 C856.504,72.482 861.698,70.439 865.974,66.239 C869.974,62.306 872.095,56.932 872.336,51.332 C872.372,50.946 872.389,49.375 872.389,49 L872.389,2.282 L872.388,2.282" id="Fill-5" fill="#1A1919"></path>
            <path d="M190.794,70.981 C190.794,71.981 190.293,72.482 189.293,72.482 L179.6,72.482 C178.6,72.482 177.859,72.046 177.378,71.169 L152.087,24.803 L152.087,70.982 C152.087,71.982 151.587,72.482 150.588,72.482 L140.99,72.482 C140.21,72.482 139.71,71.981 139.71,70.981 L139.71,2.283 C139.71,1.285 140.213,0.782 141.21,0.782 L150.727,0.782 C151.727,0.782 152.467,1.219 152.947,2.095 L178.14,48.395 L178.141,2.282 C178.141,1.282 178.641,0.782 179.64,0.782 L189.293,0.782 C190.293,0.782 190.794,1.282 190.794,2.282 L190.794,70.981" id="Fill-6" fill="#1A1919"></path>
            <path d="M620.744,6.237 C624.199,2.798 628.466,0.891 633.338,0.79 C633.472,0.785 647.375,0.782 647.375,0.782 C654.035,0.782 658.584,3.66 662.136,8.19 C663.453,9.869 664.468,12.15 665.287,14.597 C665.672,15.749 664.585,16.076 664.063,16.239 C663.709,16.348 655.711,17.77 655.435,17.836 C654.201,18.126 653.46,18.246 652.893,16.882 C651.285,13.01 648.914,13.072 646.616,13.064 C646.308,13.063 635.124,13.071 635.083,13.071 C631.485,13.143 628.278,15.579 628.087,19.211 C628.022,20.475 628.001,21.792 628.051,22.926 C628.152,25.21 629.168,27.934 632.831,28.612 C634.179,28.927 649.303,31.648 651.618,32.182 C656.183,33.235 659.776,35.839 662.118,38.718 C664.476,41.618 666.403,45.618 666.403,50.318 L666.403,54.139 C666.403,54.176 666.403,54.324 666.403,54.361 C666.354,59.3 664.353,63.603 660.829,67.109 C657.246,70.673 652.87,72.442 647.861,72.442 L634.429,72.442 C634.257,72.442 633.595,72.437 633.425,72.432 C625.574,72.201 619.116,67.711 616.501,58.705 C616.145,57.68 616.516,57.046 617.656,56.862 C617.656,56.862 625.013,55.724 626.234,55.537 C627.167,55.393 627.81,55.662 628.125,56.555 C628.917,58.792 631.173,60.141 633.726,60.22 C633.972,60.279 646.892,60.217 647.157,60.211 C651.699,59.863 653.93,57.424 653.93,54.249 L653.929,50.231 C653.929,47.322 652.083,44.86 648.458,44.207 C646.258,43.811 630.092,40.786 629.889,40.752 C625.618,40.037 622.302,37.864 619.631,34.652 C616.535,30.926 615.413,27.031 615.413,22.826 L615.413,18.976 C615.505,14.655 617.161,9.802 620.744,6.237" id="Fill-7" fill="#1A1919"></path>
            <path d="M215.325,6.237 C218.78,2.798 223.047,0.891 227.92,0.79 C228.053,0.785 241.956,0.782 241.956,0.782 C248.616,0.782 253.166,3.66 256.718,8.19 C258.034,9.869 259.049,12.15 259.868,14.597 C260.253,15.749 259.167,16.076 258.644,16.239 C258.291,16.348 250.293,17.77 250.017,17.836 C248.782,18.126 248.042,18.246 247.475,16.882 C245.866,13.01 243.495,13.072 241.197,13.064 C240.889,13.063 229.705,13.071 229.664,13.071 C226.066,13.143 222.859,15.579 222.669,19.211 C222.603,20.475 222.583,21.792 222.632,22.926 C222.733,25.21 223.75,27.934 227.412,28.612 C228.76,28.927 243.884,31.648 246.198,32.182 C250.764,33.235 254.357,35.839 256.699,38.718 C259.057,41.618 260.984,45.618 260.984,50.318 L260.984,54.139 C260.984,54.176 260.984,54.324 260.983,54.361 C260.935,59.3 258.934,63.603 255.41,67.109 C251.827,70.673 247.451,72.442 242.442,72.442 L229.011,72.442 C228.838,72.442 228.176,72.437 228.006,72.432 C220.155,72.201 213.697,67.711 211.083,58.705 C210.727,57.68 211.097,57.046 212.237,56.862 C212.237,56.862 219.594,55.724 220.815,55.537 C221.749,55.393 222.391,55.662 222.707,56.555 C223.498,58.792 225.755,60.141 228.307,60.22 C228.554,60.279 241.474,60.217 241.738,60.211 C246.28,59.863 248.511,57.424 248.511,54.249 L248.51,50.231 C248.51,47.322 246.665,44.86 243.039,44.207 C240.84,43.811 224.673,40.786 224.471,40.752 C220.198,40.037 216.884,37.864 214.213,34.652 C211.115,30.926 209.993,27.031 209.993,22.826 L209.993,18.976 C210.086,14.655 211.742,9.802 215.325,6.237" id="Fill-8" fill="#1A1919"></path>
            <path d="M324.476,11.882 C324.476,12.882 323.974,13.382 322.974,13.382 L305.226,13.382 L305.226,70.983 C305.226,71.983 304.725,72.482 303.726,72.482 L294.125,72.482 C293.126,72.482 292.626,71.981 292.626,70.981 L292.626,13.382 L274.876,13.382 C273.876,13.382 273.376,12.882 273.376,11.882 L273.376,2.282 C273.376,1.282 273.876,0.782 274.876,0.782 L322.974,0.782 C323.974,0.782 324.476,1.282 324.476,2.282 L324.476,11.882" id="Fill-9" fill="#1A1919"></path>
            <path d="M392.312,70.982 C392.312,71.982 391.812,72.482 390.812,72.482 L381.362,72.482 C380.362,72.482 379.862,71.982 379.862,70.982 L379.862,42.876 L353.612,42.876 L353.612,70.982 C353.612,71.982 353.112,72.482 352.112,72.482 L342.71,72.482 C341.71,72.482 341.21,71.982 341.211994,70.982 L341.211994,2.282 C341.211994,1.282 341.711994,0.782 342.711994,0.782 L352.112,0.782 C353.112,0.782 353.612,1.282 353.612,2.282 L353.612,30.382 L379.862,30.382 L379.863,2.282 C379.863,1.282 380.363,0.782 381.363,0.782 L390.811,0.782 C391.811,0.782 392.311,1.282 392.311,2.282 L392.312,70.982" id="Fill-10" fill="#1A1919"></path>
            <g id="Group-17" transform="translate(478.000000, 0.000000)">
                <mask id="mask-4" fill="white">
                    <use xlink:href="#path-3"></use>
                </mask>
                <g id="Clip-12"></g>
                <path d="M118.921,70.982 C118.921,71.982 118.421,72.482 117.421,72.482 L107.971,72.482 C106.971,72.482 106.471,71.982 106.471,70.982 L106.471,42.876 L80.221,42.876 L80.221,70.982 C80.221,71.982 79.721,72.482 78.721,72.482 L69.32,72.482 C68.32,72.482 67.82,71.982 67.821994,70.982 L67.821994,2.282 C67.821994,1.282 68.321994,0.782 69.321994,0.782 L78.721,0.782 C79.721,0.782 80.221,1.282 80.221,2.282 L80.221,30.382 L106.471,30.382 L106.472,2.282 C106.472,1.282 106.972,0.782 107.972,0.782 L117.42,0.782 C118.42,0.782 118.92,1.282 118.92,2.282 L118.921,70.982" id="Fill-11" fill="#1A1919" mask="url(#mask-4)"></path>
                <path d="M50.5,55.183 C49.323,60.223 46.932,64.407 42.607,67.857 C38.712,70.963 34.424,72.482 29.424,72.482 L22.066,72.482 C15.5,72.55 10.7,70.075 6.75,66.175 C2.697,62.175 0.1,56.65 0.1,50.025 L0.1,23.225 C0.1,16.35 2.816,11.306 6.906,7.002 C11.139,2.54 15.928,0.75 21.875,0.781579059 L29.525,0.781579059 C34.525,0.781579059 38.75,2.275 42.666,5.482 C46.52,8.638 49.473,12.894 50.468,18.186 C50.664,19.227 50.205,19.856 49.172,20.014 L40.182,21.502 C39.138,21.656 38.569,21.259 38.289,20.289 C37.087,16.134 33.6,13.324 28.8,13.324 L22.55,13.324 C20.15,13.324 17.195,14.27 15.45,16.124 C13.417,18.286 12.55,20.374 12.55,23.275 L12.55,50.074 C12.55,52.65 13.617,55.182 15.5,57.099 C17.15,58.775 19.875,59.875 22.5,59.875 L28.75,59.875 C33.55,59.875 37.189,57.412 38.442,52.899 C38.73,51.862 39.276,51.527 40.318,51.706 C40.318,51.706 48.83,53.256 49.282,53.336 C50.342,53.524 50.747,54.116 50.5,55.183" id="Fill-13" fill="#1A1919" mask="url(#mask-4)"></path>
                <path d="M323.63,70.982 C323.63,71.982 323.13,72.482 322.13,72.482 L312.681,72.482 C311.681,72.482 311.181,71.982 311.181,70.982 L311.181,42.876 L284.931,42.876 L284.931,70.982 C284.931,71.982 284.43,72.482 283.431,72.482 L274.029,72.482 C273.029,72.482 272.529,71.982 272.530994,70.982 L272.530994,2.282 C272.530994,1.282 273.030994,0.782 274.030994,0.782 L283.431,0.782 C284.43,0.782 284.931,1.282 284.931,2.282 L284.931,30.382 L311.181,30.382 L311.182,2.282 C311.182,1.282 311.682,0.782 312.682,0.782 L322.13,0.782 C323.13,0.782 323.63,1.282 323.63,2.282 L323.63,70.982" id="Fill-14" fill="#1A1919" mask="url(#mask-4)"></path>
                <path d="M255.009,55.183 C253.833,60.223 251.442,64.407 247.117,67.857 C243.221,70.963 238.934,72.482 233.934,72.482 L226.576,72.482 C220.009,72.55 215.208,70.075 211.259,66.175 C207.207,62.175 204.609,56.65 204.609,50.025 L204.609,23.225 C204.609,16.35 207.325,11.306 211.416,7.002 C215.648,2.54 220.437,0.75 226.384,0.781579059 L234.034,0.781579059 C239.034,0.781579059 243.259,2.275 247.175,5.482 C251.03,8.638 253.983,12.894 254.978,18.186 C255.173,19.227 254.714,19.856 253.681,20.014 L244.692,21.502 C243.648,21.656 243.078,21.259 242.798,20.289 C241.596,16.134 238.109,13.324 233.309,13.324 L227.059,13.324 C224.659,13.324 221.704,14.27 219.958,16.124 C217.925,18.286 217.059,20.374 217.059,23.275 L217.059,50.074 C217.059,52.65 218.126,55.182 220.009,57.099 C221.659,58.775 224.384,59.875 227.009,59.875 L233.259,59.875 C238.059,59.875 241.698,57.412 242.951,52.899 C243.239,51.862 243.786,51.527 244.828,51.706 C244.828,51.706 253.338,53.256 253.792,53.336 C254.851,53.524 255.255,54.116 255.009,55.183" id="Fill-15" fill="#1A1919" mask="url(#mask-4)"></path>
                <path d="M525.23,70.982 C525.23,71.982 524.73,72.482 523.73,72.482 L479.231,72.482 C478.232,72.482 477.731,71.982 477.731,70.982 L477.73,2.283 C477.73,1.283 478.23,0.783 479.23,0.783 L523.73,0.782 C524.73,0.782 525.23,1.282 525.23,2.282 L525.23,11.832 C525.23,12.832 524.73,13.332 523.73,13.332 L490.082,13.332 L490.082,30.453 L520.132,30.453 C521.132,30.454 521.632,30.954 521.632,31.954 L521.632,41.31 C521.631,42.31 521.131,42.81 520.131,42.811 L490.082,42.811 L490.082,59.953 L523.73,59.952 C524.73,59.952 525.23,60.452 525.23,61.452 L525.23,70.982" id="Fill-16" fill="#1A1919" mask="url(#mask-4)"></path>
            </g>
            <path d="M449.99,50.15 C449.99,52.896 448.997,55.307 447.059,57.285 C445.121,59.262 442.817,60.226 440.147,60.226 L433.551,60.226 C430.88,60.226 428.533,59.262 426.609,57.285 C424.686,55.307 423.699,52.896 423.699,50.15 L423.699,23.122 C423.699,20.376 424.686,18.015 426.609,16.037 C428.533,14.06 430.88,13.046 433.551,13.046 L440.147,13.046 C442.817,13.046 445.121,14.06 447.059,16.037 C448.997,18.015 449.99,20.376 449.99,23.122 L449.99,50.15 Z M455.611,7.083 C451.425,2.882 446.356,0.782 440.458,0.782 L433.281,0.782 C427.382,0.782 422.314,2.882 418.127,7.083 C413.94,11.283 411.847,16.367 411.847,22.284 L411.847,50.988 C411.847,56.905 413.94,61.989 418.127,66.189 C422.314,70.39 427.382,72.491 433.281,72.491 L440.458,72.491 C446.356,72.491 451.425,70.39 455.611,66.189 C459.799,61.989 461.893,56.905 461.893,50.988 L461.893,22.284 C461.893,16.367 459.799,11.283 455.611,7.083 L455.611,7.083 Z" id="Fill-18" fill="#1A1919"></path>
            <g id="Group-27">
                <mask id="mask-6" fill="white">
                    <use xlink:href="#path-5"></use>
                </mask>
                <g id="Clip-20"></g>
                <path d="M940.402,70.982 C940.403,71.981 939.903,72.482 938.903,72.482 C938.577,72.482 894.402,72.482 894.402,72.482 C893.402,72.482 892.902,71.982 892.902,70.982 L892.902,2.282 C892.902,1.282 893.402,0.782 894.402,0.782 L903.802,0.782 C904.802,0.782 905.302,1.282 905.302,2.282 L905.302,59.953 L938.905,59.953 C939.905,59.953 940.405,60.453 940.405,61.453 L940.402,70.982" id="Fill-19" fill="#1A1919" mask="url(#mask-6)"></path>
                <path d="M1.501,108.301 L10.628,108.301 C11.622,108.301 12.123,108.8 12.123,109.804 L12.123,135.699 L36.571,109.403 C37.25,108.673 38.094,108.301 39.092,108.301 L52.462,108.301 C53.435,108.301 53.609,108.681 52.962,109.418 L28.911,136.381 L53.455,178.702 C53.954,179.566 53.714,180 52.705,180 L41.556,180 C40.56,180 39.8,179.563 39.3,178.71 L19.842,145.561 L12.173,153.265 L12.173,178.5 C12.173,179.494 11.675,180 10.672,180 L1.496,180 C0.502,180 0,179.496 0,178.5 L0,109.797 C0,108.797 0.507,108.301 1.501,108.301" id="Fill-21" fill="#1A1919" mask="url(#mask-6)"></path>
                <path d="M207.693,113.755 C211.149,110.316 215.416,108.409 220.289,108.309 C220.422,108.303 234.325,108.301 234.325,108.301 C240.984,108.301 245.534,111.178 249.086,115.709 C250.402,117.387 251.418,119.668 252.237,122.116 C252.622,123.267 251.536,123.595 251.013,123.757 C250.66,123.867 242.662,125.289 242.385,125.354 C241.151,125.645 240.41,125.764 239.843,124.401 C238.234,120.529 235.864,120.591 233.565,120.582 C233.258,120.581 222.074,120.589 222.032,120.59 C218.435,120.661 215.228,123.097 215.038,126.729 C214.971,127.994 214.951,129.311 215.001,130.445 C215.102,132.728 216.118,135.452 219.781,136.13 C221.129,136.445 236.252,139.167 238.567,139.7 C243.133,140.754 246.726,143.357 249.067,146.236 C251.426,149.136 253.353,153.136 253.353,157.837 L253.353,161.657 C253.353,161.695 253.353,161.842 253.352,161.879 C253.303,166.818 251.303,171.121 247.778,174.628 C244.196,178.191 239.819,179.96 234.811,179.96 L221.379,179.96 C221.207,179.96 220.545,179.955 220.375,179.95 C212.523,179.72 206.066,175.229 203.451,166.223 C203.095,165.199 203.466,164.564 204.605,164.38 C204.605,164.38 211.963,163.242 213.184,163.055 C214.117,162.911 214.759,163.18 215.075,164.074 C215.866,166.31 218.124,167.659 220.676,167.739 C220.922,167.797 233.842,167.735 234.106,167.729 C238.649,167.382 240.879,164.942 240.879,161.767 L240.879,157.749 C240.879,154.84 239.034,152.378 235.407,151.725 C233.209,151.329 217.042,148.304 216.839,148.27 C212.567,147.555 209.252,145.382 206.582,142.17 C203.484,138.445 202.362,134.55 202.362,130.345 L202.362,126.494 C202.455,122.174 204.11,117.32 207.693,113.755" id="Fill-22" fill="#1A1919" mask="url(#mask-6)"></path>
                <path d="M140.734,113.755 C144.189,110.316 148.457,108.409 153.329,108.309 C153.462,108.303 167.365,108.301 167.365,108.301 C174.025,108.301 178.575,111.178 182.127,115.709 C183.443,117.387 184.459,119.668 185.277,122.116 C185.663,123.267 184.576,123.595 184.053,123.757 C183.7,123.867 175.702,125.289 175.426,125.354 C174.191,125.645 173.451,125.764 172.884,124.401 C171.275,120.529 168.904,120.591 166.606,120.582 C166.298,120.581 155.114,120.589 155.073,120.59 C151.476,120.661 148.268,123.097 148.078,126.729 C148.012,127.994 147.992,129.311 148.042,130.445 C148.142,132.728 149.159,135.452 152.821,136.13 C154.169,136.445 169.293,139.167 171.607,139.7 C176.173,140.754 179.766,143.357 182.108,146.236 C184.466,149.136 186.394,153.136 186.394,157.837 L186.394,161.657 C186.394,161.695 186.393,161.842 186.393,161.879 C186.344,166.818 184.343,171.121 180.819,174.628 C177.236,178.191 172.86,179.96 167.852,179.96 L154.42,179.96 C154.248,179.96 153.585,179.955 153.416,179.95 C145.564,179.72 139.106,175.229 136.492,166.223 C136.136,165.199 136.506,164.564 137.646,164.38 C137.646,164.38 145.003,163.242 146.224,163.055 C147.158,162.911 147.8,163.18 148.116,164.074 C148.907,166.31 151.164,167.659 153.716,167.739 C153.963,167.797 166.883,167.735 167.147,167.729 C171.689,167.382 173.92,164.942 173.92,161.767 L173.919,157.749 C173.919,154.84 172.074,152.378 168.448,151.725 C166.249,151.329 150.083,148.304 149.88,148.27 C145.607,147.555 142.293,145.382 139.622,142.17 C136.524,138.445 135.402,134.55 135.402,130.345 L135.402,126.494 C135.495,122.174 137.151,117.32 140.734,113.755" id="Fill-23" fill="#1A1919" mask="url(#mask-6)"></path>
                <path d="M319.967,178.5 C319.967,179.5 319.467,180 318.467,180 L273.967,180 C272.967,180 272.467,179.5 272.467,178.5 L272.466,109.802 C272.466,108.802 272.966,108.302 273.966,108.302 L318.466,108.300999 C319.466,108.3 319.966,108.8 319.967,109.8 L319.967,119.35 C319.969,120.35 319.469,120.85 318.469,120.85 L284.817,120.85 L284.817,137.971 L314.867,137.971 C315.867,137.972 316.367,138.472 316.367,139.472 L316.367,148.828 C316.366,149.828 315.866,150.328 314.866,150.329 L284.817,150.329 L284.817,167.471 L318.468,167.47 C319.467,167.47 319.968,167.97 319.968,168.97 L319.967,178.5" id="Fill-24" fill="#1A1919" mask="url(#mask-6)"></path>
                <path d="M388.312,178.5 C388.313,179.499 387.812,180 386.812,180 C386.486,180 342.312,180 342.312,180 C341.312,180 340.812,179.5 340.812,178.5 L340.812,109.801 C340.812,108.801 341.312,108.301 342.312,108.301 L351.712,108.301 C352.712,108.301 353.212,108.801 353.212,109.801 L353.212,167.471 L386.815,167.471 C387.815,167.471 388.315,167.971 388.315,168.971 L388.312,178.5" id="Fill-25" fill="#1A1919" mask="url(#mask-6)"></path>
                <path d="M122.933,178.245 C123.268,179.414 122.813,180 121.663,180 L111.88,180 C110.932,180 110.344,179.561 110.071,178.687 L105.647,164.658 L82.216,164.658 L77.714,178.947 C77.511,179.599 76.987,180 76.287,180 L66.203,180 C65.003,180 64.593,179.414 64.976,178.243 L87.166,109.655 C87.447,108.735 88.041,108.3 88.989,108.302 L98.922,108.301 C99.872,108.301 100.463,108.738 100.694,109.658 L122.933,178.245 Z M102.018,152.5 L93.956,126.499 L85.881,152.5 L102.018,152.5 L102.018,152.5 Z" id="Fill-26" fill="#1A1919" mask="url(#mask-6)"></path>
            </g>
        </g>
    </g>
</svg>