<?xml version="1.0" standalone="no"?>
<!DOCTYPE svg PUBLIC "-//W3C//DTD SVG 20010904//EN"
 "http://www.w3.org/TR/2001/REC-SVG-20010904/DTD/svg10.dtd">
<svg version="1.0" xmlns="http://www.w3.org/2000/svg"
 width="400.000000pt" height="400.000000pt" viewBox="0 0 400.000000 400.000000"
 preserveAspectRatio="xMidYMid meet">
<metadata>
Created by potrace 1.14, written by Peter Selinger 2001-2017
</metadata>
<g transform="translate(0.000000,400.000000) scale(0.100000,-0.100000)"
fill="#000000" stroke="none">
<path d="M1878 3855 c-2 -2 -20 -6 -41 -9 -139 -22 -284 -159 -376 -358 -39
-82 -104 -280 -115 -349 -3 -20 -8 -42 -10 -50 -6 -15 -42 -229 -51 -296 -3
-24 -7 -60 -10 -80 -3 -21 -7 -63 -10 -93 -3 -30 -7 -71 -10 -90 -2 -19 -7
-66 -10 -105 -10 -123 -15 -189 -20 -235 -2 -25 -7 -83 -10 -130 -4 -47 -8
-105 -10 -130 -10 -127 -17 -198 -20 -230 -2 -19 -7 -75 -10 -125 -4 -49 -8
-101 -10 -115 -2 -14 -7 -68 -10 -120 -4 -52 -9 -103 -11 -112 -6 -36 -18
-279 -18 -388 0 -298 45 -473 149 -585 121 -130 299 -134 421 -9 84 87 121
210 139 464 17 233 27 310 53 375 23 59 62 106 101 122 33 14 36 14 53 -9 19
-25 45 -105 53 -163 2 -21 7 -54 9 -74 3 -20 8 -83 11 -141 4 -58 8 -116 10
-130 2 -14 6 -52 10 -85 34 -290 160 -454 350 -458 170 -4 313 165 359 426 9
54 20 214 20 307 0 94 -12 322 -18 357 -2 10 -7 47 -10 83 -4 36 -9 81 -11
100 -3 19 -7 58 -10 85 -3 28 -8 61 -10 75 -6 31 -10 62 -25 165 -14 96 -14
95 -44 276 -36 213 -36 213 -41 229 -2 8 -7 35 -10 58 -18 129 -125 624 -166
772 -139 493 -336 751 -591 774 -26 2 -48 2 -50 1z"/>
</g>
</svg>
